<svg xmlns="http://www.w3.org/2000/svg" version="1.1" xmlns:xlink="http://www.w3.org/1999/xlink" xmlns:svgjs="http://svgjs.dev/svgjs" width="1000" height="1000" viewBox="0 0 1000 1000"><rect width="1000" height="1000" fill="#ffffff"></rect><g transform="matrix(0.7,0,0,0.7,150,150.0006018074185)"><svg viewBox="0 0 280 280" data-background-color="#ffffff" preserveAspectRatio="xMidYMid meet" height="1000" width="1000" xmlns="http://www.w3.org/2000/svg" xmlns:xlink="http://www.w3.org/1999/xlink"><g id="tight-bounds" transform="matrix(1,0,0,1,0,0.0002407229674190603)"><svg viewBox="0 0 280 280" height="280" width="280"><g><svg viewBox="0 0 280 280" height="280" width="280"><g><svg viewBox="0 0 280 280" height="280" width="280"><g id="textblocktransform"><svg viewBox="0 0 280 280" height="280" width="280" id="textblock"><g><svg viewBox="0 0 280 280" height="280" width="280"><g transform="matrix(1,0,0,1,74.00336708925556,82.5924202769095)"><svg viewBox="0 0 131.99326582148888 114.81515944618101" height="114.81515944618101" width="131.99326582148888"><g><svg xmlns="http://www.w3.org/2000/svg" xmlns:xlink="http://www.w3.org/1999/xlink" version="1.1" x="0" y="0" viewBox="7.7860002517700195 13.361000061035156 84.45763397216797 73.46599578857422" enable-background="new 0 0 100 100" xml:space="preserve" height="114.81515944618101" width="131.99326582148888" class="icon-o-0" data-fill-palette-color="accent" id="o-0"><path d="M91.609 85.407c-4.207-5.085-3.187-12-2.187-15.735 0.942-2.331 1.472-4.812 1.472-7.406 0-4.633-1.631-8.939-4.414-12.549C83.77 66.564 67.068 79.609 46.761 79.93c4.665 3.282 10.648 5.26 17.174 5.26 4.771 0 9.237-1.063 13.119-2.91 5.959 3.998 13.379 4.547 13.379 4.547C93.641 86.825 91.609 85.407 91.609 85.407z" fill="#000000" data-fill-palette-color="accent"></path><path d="M83.426 44.923c0-17.401-16.789-31.562-37.421-31.562-20.635 0-37.422 14.161-37.422 31.562 0 3.4 0.673 6.804 2.003 10.106 1.544 5.688 3.072 15.9-2.8 23.798 1.994-0.214 10.954-1.419 18.195-6.271l0.823-0.55 0.894 0.423c5.578 2.651 11.908 4.057 18.307 4.057C66.637 76.486 83.426 62.324 83.426 44.923z" fill="#000000" data-fill-palette-color="accent"></path></svg></g></svg></g><g><path d="M30.83 93.001l-3.754 10.076c-0.639 1.716-1.381 2.965-2.225 3.748-0.84 0.791-1.816 1.198-2.928 1.219-1.108 0.03-2.377-0.221-3.806-0.754v0l-8.076-3.009c-2.322-0.865-3.838-2.022-4.547-3.471-0.71-1.449-0.628-3.344 0.244-5.685v0l4.065-10.908c0.62-1.665 1.184-2.904 1.69-3.718 0.509-0.82 0.862-1.193 1.06-1.119v0l2.734 1.846c-0.225 0.388-0.757 1.574-1.598 3.557-0.834 1.985-1.967 4.897-3.397 8.737v0l-0.689 1.847c-0.72 1.933-0.222 3.219 1.494 3.859v0l9.243 3.444c0.817 0.304 1.526 0.329 2.13 0.074 0.603-0.255 1.108-0.927 1.515-2.018v0l0.553-1.483c1.495-4.012 2.613-7.138 3.352-9.376 0.742-2.244 1.164-3.649 1.265-4.214v0l2.945-0.592c0.121 0.045 0.229 0.311 0.324 0.797 0.086 0.49 0.031 1.301-0.166 2.434-0.206 1.137-0.682 2.706-1.428 4.709z" fill="#000000" data-fill-palette-color="primary"></path><path d="M47.314 66.173l-6.513 9.227c-1.04 1.474-2.07 2.484-3.089 3.031-1.01 0.545-2.059 0.692-3.148 0.44-1.087-0.242-2.254-0.803-3.499-1.682v0l-7.3-5.153c-1.218-0.86-2.124-1.754-2.719-2.681-0.593-0.919-0.808-1.954-0.646-3.106 0.159-1.146 0.766-2.467 1.823-3.963v0l6.512-9.227c1.04-1.474 2.07-2.472 3.089-2.994 1.023-0.528 2.07-0.672 3.142-0.432 1.082 0.238 2.231 0.788 3.449 1.647v0l7.3 5.152c1.852 1.307 2.969 2.712 3.35 4.215 0.38 1.493-0.204 3.335-1.751 5.526zM38.413 72.339v0l5.24-7.425c0.55-0.779 0.778-1.521 0.686-2.229-0.094-0.716-0.489-1.32-1.185-1.81v0l-8.058-5.689c-0.612-0.432-1.287-0.579-2.026-0.442-0.748 0.139-1.389 0.586-1.922 1.343v0l-5.241 7.425c-0.534 0.756-0.765 1.51-0.695 2.259 0.075 0.744 0.448 1.354 1.122 1.829v0l8.059 5.688c0.712 0.502 1.421 0.666 2.128 0.491 0.711-0.181 1.342-0.661 1.892-1.44z" fill="#000000" data-fill-palette-color="primary"></path><path d="M61.376 51.969l-3.962 3.221-12.394-15.244-2.253-2.156 4.318-3.511 18.889 2.383 2.485 0.677 0.333-0.27-10.004-12.305 3.961-3.221 14.346 17.645-3.811 3.099-19.274-2.373-2.311-0.463-0.302 0.245z" fill="#000000" data-fill-palette-color="primary"></path><path d="M97.424 30.42l-5.713 2.379-18.683-16.807 4.996-2.082 12.735 11.664 2.03 2.164 0.32-0.134-0.135-2.953 0.754-17.283 4.854-2.022 0.326 2.375z" fill="#000000" data-fill-palette-color="primary"></path><path d="M129.763 22.647l-11.157 1.751c-1.782 0.28-3.225 0.244-4.327-0.106-1.095-0.345-1.931-0.996-2.508-1.953-0.583-0.949-0.993-2.177-1.229-3.683v0l-1.386-8.827c-0.231-1.473-0.221-2.746 0.032-3.819 0.246-1.065 0.839-1.941 1.779-2.626 0.933-0.684 2.304-1.168 4.113-1.451v0l11.157-1.752c1.782-0.28 3.215-0.236 4.3 0.132 1.091 0.366 1.924 1.018 2.498 1.954 0.582 0.942 0.989 2.15 1.22 3.623v0l1.385 8.827c0.352 2.24 0.121 4.019-0.691 5.338-0.807 1.312-2.535 2.176-5.186 2.592zM119.14 20.552v0l8.978-1.409c0.942-0.148 1.634-0.501 2.076-1.06 0.449-0.567 0.607-1.27 0.475-2.111v0l-1.529-9.745c-0.116-0.74-0.48-1.327-1.093-1.761-0.62-0.44-1.388-0.588-2.303-0.445v0l-8.978 1.409c-0.915 0.144-1.616 0.502-2.105 1.075-0.482 0.572-0.659 1.265-0.532 2.078v0l1.53 9.745c0.135 0.861 0.512 1.484 1.13 1.869 0.625 0.384 1.409 0.502 2.351 0.355z" fill="#000000" data-fill-palette-color="primary"></path><path d="M161.621 24.239l-10.679-1.258c-1.819-0.214-3.208-0.638-4.169-1.272-0.968-0.628-1.594-1.48-1.879-2.555-0.292-1.069-0.349-2.361-0.17-3.876v0l1.008-8.559c0.29-2.461 1.054-4.208 2.293-5.241 1.239-1.033 3.099-1.404 5.58-1.112v0l11.561 1.362c1.765 0.208 3.102 0.461 4.013 0.76 0.917 0.3 1.364 0.555 1.339 0.765v0l-1.145 3.093c-0.431-0.126-1.709-0.362-3.834-0.708-2.126-0.34-5.224-0.749-9.295-1.229v0l-1.957-0.23c-2.049-0.241-3.18 0.547-3.394 2.366v0l-1.154 9.796c-0.102 0.865 0.042 1.561 0.433 2.087 0.39 0.526 1.164 0.857 2.32 0.993v0l1.572 0.185c4.253 0.501 7.554 0.845 9.903 1.033 2.356 0.188 3.821 0.265 4.394 0.23v0l1.274 2.72c-0.015 0.128-0.247 0.296-0.697 0.504-0.455 0.2-1.257 0.339-2.404 0.416-1.153 0.07-2.791-0.02-4.913-0.27z" fill="#000000" data-fill-palette-color="primary"></path><path d="M197.474 37.002v0c-0.958-0.391-1.836-0.923-2.635-1.595-0.79-0.676-1.533-1.836-2.229-3.481v0l-1.527-3.635c-0.608-1.499-1.437-2.756-2.485-3.773-1.051-1.01-2.518-1.9-4.402-2.67v0l-1.106-0.451-3.259 7.978-4.727-1.931 7.43-18.187 0.822-3.04 15.853 6.476c1.531 0.626 2.65 1.318 3.354 2.076 0.705 0.759 1.13 1.554 1.276 2.386 0.154 0.828 0.141 1.635-0.04 2.421-0.181 0.786-0.409 1.513-0.682 2.181v0l-0.278 0.681c-0.216 0.529-0.528 1.086-0.936 1.669-0.408 0.584-0.94 1.105-1.598 1.564-0.662 0.45-1.455 0.736-2.38 0.859-0.925 0.122-2.011-0.027-3.259-0.449v0c0.242 0.29 0.531 0.706 0.869 1.249 0.331 0.54 0.673 1.117 1.025 1.731 0.343 0.618 0.661 1.182 0.953 1.691 0.298 0.512 0.535 0.888 0.708 1.128v0c0.66 0.851 1.285 1.507 1.876 1.968 0.588 0.468 1.093 0.799 1.514 0.994 0.418 0.2 0.665 0.316 0.741 0.346v0l-1.904 2.609c-0.243-0.018-0.634-0.086-1.175-0.204-0.531-0.121-1.131-0.319-1.799-0.591zM189.791 20.329v0c0.907 0.371 1.725 0.683 2.453 0.935 0.731 0.262 1.394 0.485 1.988 0.669v0c1.095 0.308 1.949 0.314 2.562 0.021 0.606-0.296 1.06-0.813 1.361-1.551v0l0.336-0.822c0.311-0.763 0.371-1.492 0.177-2.189-0.19-0.688-0.811-1.247-1.863-1.677v0l-9.765-3.989-2.545 6.23c1.018 0.497 1.963 0.938 2.835 1.323 0.872 0.386 1.692 0.735 2.461 1.05z" fill="#000000" data-fill-palette-color="primary"></path><path d="M207.122 43.025l-4.407-3.53 23.056-10.668 5.945 4.763-5.404 24.809-4.646-3.722 1.293-5.257-10.806-8.657zM226.375 33.773l-10.77 4.901 8.607 6.896 2.466-11.554z" fill="#000000" data-fill-palette-color="primary"></path><path d="M241.293 77.923l-12.489-16.544 2.991-2.258 22.54 4.504-10.348-13.708 2.967-2.239 14.47 19.169-2.967 2.239-22.774-4.763 10.441 13.83-1.696 3.212c-0.082 0.062-0.369-0.156-0.864-0.653-0.489-0.501-1.246-1.43-2.271-2.789z" fill="#000000" data-fill-palette-color="primary"></path><path d="M254.614 106.676l-8.081-19.499 21.007-8.707 9.208 22.216-3.434 1.423-7.252-17.499-4.934 2.045 5.536 13.357-3.528 1.463-5.536-13.358-5.679 2.354 7.311 17.64-2.443 2.693c-0.094 0.039-0.318-0.244-0.672-0.849-0.35-0.614-0.851-1.707-1.503-3.279z" fill="#000000" data-fill-palette-color="primary"></path><path d="M14.598 198.398l-3.755-10.075c-0.639-1.716-0.896-3.146-0.77-4.29 0.117-1.148 0.589-2.094 1.416-2.838 0.818-0.748 1.942-1.388 3.371-1.921v0l8.076-3.009c2.322-0.865 4.225-0.982 5.71-0.352 1.485 0.631 2.663 2.117 3.535 4.458v0l4.065 10.909c0.62 1.665 1.005 2.971 1.155 3.917 0.152 0.953 0.129 1.467-0.069 1.541v0l-3.276 0.392c-0.084-0.441-0.457-1.686-1.119-3.735-0.668-2.047-1.718-4.99-3.149-8.83v0l-0.688-1.847c-0.72-1.933-1.938-2.58-3.654-1.94v0l-9.244 3.444c-0.817 0.304-1.37 0.75-1.659 1.338-0.29 0.587-0.231 1.427 0.175 2.517v0l0.553 1.483c1.495 4.012 2.695 7.107 3.601 9.284 0.908 2.183 1.508 3.521 1.801 4.014v0l-1.839 2.375c-0.121 0.045-0.377-0.085-0.767-0.39-0.386-0.314-0.875-0.964-1.467-1.949-0.588-0.994-1.256-2.493-2.002-4.496z" fill="#000000" data-fill-palette-color="primary"></path><path d="M33.161 229.167l-6.512-9.227c-1.04-1.474-1.647-2.783-1.822-3.926-0.176-1.134 0.038-2.172 0.64-3.114 0.593-0.943 1.512-1.854 2.757-2.734v0l7.3-5.152c1.218-0.86 2.364-1.414 3.438-1.664 1.064-0.251 2.112-0.107 3.142 0.432 1.027 0.534 2.068 1.548 3.124 3.045v0l6.512 9.227c1.04 1.474 1.636 2.778 1.787 3.913 0.155 1.14-0.06 2.176-0.645 3.105-0.587 0.939-1.489 1.839-2.707 2.698v0l-7.3 5.153c-1.852 1.307-3.55 1.889-5.093 1.745-1.534-0.142-3.074-1.309-4.621-3.501zM30.333 218.714v0l5.241 7.425c0.55 0.779 1.173 1.243 1.87 1.393 0.707 0.151 1.408-0.019 2.103-0.51v0l8.059-5.688c0.612-0.432 0.977-1.019 1.095-1.76 0.12-0.751-0.087-1.505-0.622-2.261v0l-5.24-7.425c-0.534-0.756-1.166-1.227-1.896-1.412-0.726-0.179-1.426-0.031-2.099 0.444v0l-8.059 5.689c-0.712 0.502-1.104 1.116-1.175 1.841-0.067 0.731 0.174 1.486 0.723 2.265z" fill="#000000" data-fill-palette-color="primary"></path><path d="M50.448 246.823l-3.962-3.221 12.394-15.244 1.651-2.645 4.318 3.51 1.521 18.978-0.155 2.571 0.332 0.27 10.005-12.304 3.961 3.221-14.346 17.644-3.811-3.098-1.611-19.353-0.018-2.357-0.301-0.245z" fill="#000000" data-fill-palette-color="primary"></path><path d="M90.762 270.922l-5.712-2.38-1.225-25.101 4.996 2.081 0.688 17.256-0.107 2.964 0.321 0.134 2.001-2.175 12.801-11.636 4.854 2.022-1.457 1.904z" fill="#000000" data-fill-palette-color="primary"></path><path d="M127.077 279.817l-11.157-1.751c-1.782-0.28-3.144-0.755-4.086-1.427-0.936-0.664-1.533-1.54-1.789-2.627-0.264-1.082-0.278-2.376-0.042-3.883v0l1.385-8.827c0.231-1.473 0.631-2.681 1.2-3.626 0.561-0.939 1.393-1.59 2.498-1.954 1.098-0.365 2.551-0.406 4.36-0.122v0l11.157 1.751c1.782 0.28 3.133 0.761 4.053 1.443 0.926 0.683 1.52 1.558 1.78 2.625 0.265 1.075 0.282 2.349 0.051 3.822v0l-1.386 8.827c-0.352 2.24-1.116 3.863-2.294 4.87-1.17 1.002-3.08 1.294-5.73 0.879zM117.606 274.568v0l8.978 1.409c0.942 0.148 1.709 0.024 2.302-0.372 0.601-0.402 0.967-1.023 1.099-1.864v0l1.529-9.745c0.116-0.74-0.051-1.41-0.501-2.012-0.456-0.609-1.141-0.985-2.055-1.129v0l-8.978-1.409c-0.915-0.144-1.692-0.018-2.334 0.378-0.634 0.397-1.015 1.002-1.143 1.816v0l-1.529 9.745c-0.135 0.861 0.033 1.569 0.504 2.125 0.478 0.557 1.187 0.91 2.128 1.058z" fill="#000000" data-fill-palette-color="primary"></path><path d="M163.647 278.316l-10.679 1.257c-1.819 0.214-3.269 0.124-4.35-0.269-1.087-0.386-1.894-1.069-2.421-2.049-0.533-0.972-0.888-2.216-1.067-3.73v0l-1.008-8.559c-0.29-2.461 0.048-4.338 1.013-5.63 0.965-1.293 2.688-2.085 5.17-2.378v0l11.561-1.361c1.765-0.208 3.125-0.272 4.079-0.193 0.962 0.079 1.455 0.223 1.481 0.432v0l-0.396 3.276c-0.448-0.023-1.746 0.045-3.894 0.201-2.147 0.164-5.255 0.485-9.325 0.965v0l-1.957 0.23c-2.049 0.241-2.966 1.271-2.752 3.09v0l1.154 9.797c0.102 0.865 0.404 1.508 0.906 1.929 0.502 0.421 1.331 0.563 2.487 0.427v0l1.572-0.186c4.253-0.501 7.543-0.933 9.872-1.296 2.336-0.364 3.778-0.63 4.327-0.797v0l1.871 2.35c0.015 0.128-0.172 0.346-0.561 0.652-0.396 0.3-1.144 0.621-2.241 0.963-1.105 0.336-2.719 0.629-4.842 0.879z" fill="#000000" data-fill-palette-color="primary"></path><path d="M204.319 265.104v0c-0.958 0.391-1.957 0.627-2.999 0.706-1.037 0.071-2.38-0.237-4.028-0.924v0l-3.635-1.526c-1.484-0.644-2.956-0.962-4.416-0.954-1.457 0.014-3.128 0.407-5.013 1.176v0l-1.106 0.452 3.259 7.978-4.726 1.931-7.43-18.188-1.541-2.746 15.853-6.475c1.531-0.626 2.814-0.914 3.849-0.867 1.034 0.048 1.895 0.318 2.581 0.81 0.69 0.483 1.245 1.069 1.666 1.757 0.421 0.688 0.768 1.367 1.041 2.035v0l0.278 0.68c0.216 0.529 0.383 1.145 0.501 1.848 0.118 0.702 0.102 1.447-0.046 2.236-0.157 0.785-0.523 1.545-1.099 2.279-0.575 0.735-1.455 1.389-2.64 1.961v0c0.376 0.038 0.874 0.132 1.494 0.283 0.614 0.154 1.262 0.326 1.944 0.519 0.678 0.201 1.299 0.381 1.864 0.54 0.571 0.156 1.003 0.259 1.296 0.309v0c1.067 0.145 1.973 0.176 2.718 0.092 0.748-0.078 1.34-0.194 1.776-0.35 0.439-0.15 0.696-0.24 0.771-0.271v0l0.468 3.195c-0.186 0.157-0.513 0.382-0.982 0.677-0.464 0.285-1.031 0.564-1.698 0.837zM187.159 258.579v0c0.907-0.371 1.71-0.72 2.407-1.049 0.706-0.325 1.335-0.63 1.887-0.915v0c0.997-0.547 1.612-1.14 1.844-1.778 0.225-0.636 0.188-1.323-0.114-2.061v0l-0.336-0.822c-0.311-0.763-0.78-1.325-1.406-1.687-0.617-0.358-1.452-0.323-2.504 0.107v0l-9.765 3.989 2.545 6.23c1.074-0.358 2.058-0.705 2.95-1.04 0.893-0.335 1.723-0.66 2.492-0.974z" fill="#000000" data-fill-palette-color="primary"></path><path d="M217.952 255.845l-4.407 3.53-5.38-24.828 5.945-4.763 23.033 10.687-4.646 3.722-4.849-2.409-10.806 8.657zM213.124 235.037l2.433 11.579 8.607-6.895-10.737-4.927z" fill="#000000" data-fill-palette-color="primary"></path><path d="M255.119 217.864l-12.489 16.545-2.991-2.258-1.845-22.912-10.348 13.708-2.966-2.239 14.47-19.169 2.966 2.24 1.66 23.207 10.44-13.831 3.554 0.751c0.082 0.062-0.049 0.398-0.392 1.01-0.348 0.608-1.034 1.59-2.059 2.948z" fill="#000000" data-fill-palette-color="primary"></path><path d="M270.617 185.307l-8.081 19.499-21.008-8.707 9.207-22.215 3.434 1.423-7.253 17.498 4.934 2.045 5.536-13.357 3.528 1.462-5.536 13.357 5.679 2.354 7.311-17.64 3.632-0.175c0.094 0.039 0.053 0.398-0.126 1.076-0.187 0.682-0.606 1.809-1.257 3.38z" fill="#000000" data-fill-palette-color="primary"></path><path d="M2.634 142.675c0-4.805 3.895-8.701 8.7-8.7 4.805 0 8.701 3.895 8.701 8.7 0 4.805-3.895 8.701-8.701 8.701-4.805 0-8.701-3.895-8.7-8.701z" fill="#000000" data-fill-palette-color="primary"></path><path d="M259.965 142.675c0-4.805 3.895-8.701 8.701-8.7 4.805 0 8.701 3.895 8.7 8.7 0 4.805-3.895 8.701-8.7 8.701-4.805 0-8.701-3.895-8.701-8.701z" fill="#000000" data-fill-palette-color="primary"></path></g></svg></g></svg></g></svg></g><g></g></svg></g><defs></defs></svg><rect width="280" height="280" fill="none" stroke="none" visibility="hidden"></rect></g></svg></g></svg>